# xmcd
#
# Track frame offsets: 
#        150
#        27874
#        54122
#        76312
#        108570
#        137098
#        163831
#        191612
#        216904
#        249754
#        281180
#        305625
#
# Disc length: 4417 seconds
#
# Revision: 2
# Processed by: cddbd v1.5.2PL0 Copyright (c) Steve Scherf et al.
# Submitted via: ExactAudioCopy v0.99pb4
#
DISCID=a6113f0c
DTITLE=Various Artist - Alwyn's Groove
DYEAR=1900
DGENRE=Jazz
TTITLE0=Gary Burton - Body And Soul
TTITLE1=Don Braden - You Are The Sunshine Of My Life
TTITLE2=Michael Stewart - Stella By Starlight
TTITLE3=Michael Weiss - Some Other Spring
TTITLE4=Jeff Hamilton - Sweet Lorraine
TTITLE5=Jon Mayer - Never Let Me Go
TTITLE6=Diana Krall - I've Got You Under My Skin
TTITLE7=Toots Thielmans - Corcovado
TTITLE8=Chucho Valdes - Claudia
TTITLE9=Peter Bernstein - On A Misty Night
TTITLE10=William (Red) Garland - Misty
TTITLE11=David (Fathead) Newman - The Gift
EXTD=
EXTT0=
EXTT1=
EXTT2=
EXTT3=
EXTT4=
EXTT5=
EXTT6=
EXTT7=
EXTT8=
EXTT9=
EXTT10=
EXTT11=
PLAYORDER=
